<!DOCTYPE svg PUBLIC "-//W3C//DTD SVG 1.1//EN" "http://www.w3.org/Graphics/SVG/1.1/DTD/svg11.dtd">
<!-- Uploaded to: SVG Repo, www.svgrepo.com, Transformed by: SVG Repo Mixer Tools -->
<svg height="64px" width="64px" version="1.1" id="Layer_1" xmlns="http://www.w3.org/2000/svg" xmlns:xlink="http://www.w3.org/1999/xlink" viewBox="0 0 512 512" xml:space="preserve" fill="#000000">
<g id="SVGRepo_bgCarrier" stroke-width="0"/>
<g id="SVGRepo_tracerCarrier" stroke-linecap="round" stroke-linejoin="round"/>
<g id="SVGRepo_iconCarrier"> <g> <circle style="fill:#999999;" cx="254.956" cy="104.911" r="42.301"/> <path style="fill:#999999;" d="M327.928,240.998V203.55c0-39.424-43.024-40.144-43.024-40.144h-59.896 c0,0-43.024,0.48-43.024,40.144v37.448H327.928z"/> <circle style="fill:#999999;" cx="439.026" cy="104.911" r="42.301"/> <path style="fill:#999999;" d="M512,240.998V203.55c0-39.424-43.024-40.144-43.024-40.144H409.08c0,0-43.024,0.48-43.024,40.144 v37.448H512z"/> </g> <g> <circle style="fill:#E21B1B;" cx="72.973" cy="104.911" r="42.301"/> <path style="fill:#E21B1B;" d="M145.952,240.998V203.55c0-39.424-43.024-40.144-43.024-40.144H43.024 c0,0-43.024,0.48-43.024,40.144v37.448H145.952z"/> </g> <g> <circle style="fill:#999999;" cx="254.956" cy="313.303" r="42.301"/> <path style="fill:#999999;" d="M327.928,449.389v-37.447c0-39.424-43.024-40.144-43.024-40.144h-59.896 c0,0-43.024,0.48-43.024,40.144v37.448L327.928,449.389L327.928,449.389z"/> <circle style="fill:#999999;" cx="439.026" cy="310.776" r="42.301"/> <path style="fill:#999999;" d="M512,446.878v-37.448c0-39.424-43.024-40.144-43.024-40.144H409.08c0,0-43.024,0.48-43.024,40.144 v37.448H512L512,446.878z"/> </g> </g>
</svg>